<svg width="237" height="138" viewBox="0 0 237 138" fill="none" xmlns="http://www.w3.org/2000/svg">
<rect width="237" height="138" fill="#FAFAFA"/>
<g clip-path="url(#clip0_1_25)">
<mask id="mask0_1_25" style="mask-type:luminance" maskUnits="userSpaceOnUse" x="53" y="51" width="131" height="36">
<path d="M184 51H53V87H184V51Z" fill="white"/>
</mask>
<g mask="url(#mask0_1_25)">
<path d="M60.6894 79.7693H55.8247V84.6988H53.0439V72.6697H55.8247V77.443H60.6894V72.6697H63.4701V84.6988H60.6894V79.7693Z" fill="#3B5047"/>
<path d="M67.4933 75.5647C66.9443 75.5647 66.5448 75.4469 66.2946 75.2112C66.0445 74.9755 65.9194 74.674 65.9194 74.3067V73.9272C65.9194 73.5599 66.0445 73.2584 66.2946 73.0227C66.5448 72.787 66.9443 72.6692 67.4933 72.6692C68.0423 72.6692 68.4419 72.787 68.692 73.0227C68.9422 73.2584 69.0673 73.5599 69.0673 73.9272V74.3067C69.0673 74.674 68.9422 74.9755 68.692 75.2112C68.4419 75.4469 68.0423 75.5647 67.4933 75.5647ZM66.1403 76.4157H68.848V84.6983H66.1403V76.4157Z" fill="#3B5047"/>
<path d="M74.6271 84.6984C73.6996 84.6984 72.92 84.5576 72.2865 84.276C71.6531 83.9944 71.0846 83.595 70.5859 83.0777L72.1777 81.5611C72.5188 81.9176 72.8973 82.1992 73.3115 82.4058C73.7256 82.6125 74.195 82.7165 74.7197 82.7165C75.2443 82.7165 75.6276 82.6385 75.8356 82.4839C76.0435 82.3293 76.1458 82.1197 76.1458 81.8549C76.1458 81.4294 75.8226 81.1769 75.1761 81.0958L74.1333 80.9749C71.9747 80.7224 70.8962 79.7919 70.8962 78.1834C70.8962 77.7473 70.9839 77.3478 71.1609 76.9851C71.338 76.6224 71.5881 76.3133 71.9113 76.0546C72.2346 75.796 72.6244 75.5955 73.0824 75.4516C73.5388 75.3078 74.0554 75.2358 74.6287 75.2358C75.129 75.2358 75.5708 75.268 75.9541 75.3307C76.3375 75.3935 76.6802 75.4853 76.979 75.6062C77.2779 75.7271 77.5524 75.8756 77.8025 76.0546C78.0527 76.2337 78.2996 76.4311 78.5432 76.6484L76.9888 78.1482C76.6834 77.8605 76.3391 77.634 75.9557 77.4672C75.5724 77.3004 75.1777 77.2177 74.7765 77.2177C74.3136 77.2177 73.9839 77.2866 73.789 77.4243C73.5941 77.5621 73.4966 77.7457 73.4966 77.9753C73.4966 78.2171 73.5665 78.4038 73.7061 78.5354C73.8458 78.667 74.1106 78.7619 74.502 78.8201L75.5805 78.9578C77.6905 79.2226 78.7446 80.1301 78.7446 81.6804C78.7446 82.1166 78.6472 82.5191 78.4522 82.8864C78.2573 83.2537 77.9796 83.5736 77.6206 83.8429C77.2617 84.1123 76.828 84.3235 76.3228 84.4719C75.8161 84.6204 75.2524 84.6953 74.6304 84.6953L74.6271 84.6984Z" fill="#3B5047"/>
<path d="M83.7165 84.6984C82.789 84.6984 82.0094 84.5576 81.3759 84.276C80.7424 83.9944 80.1739 83.595 79.6753 83.0777L81.2671 81.5611C81.6082 81.9176 81.9866 82.1992 82.4008 82.4058C82.815 82.6125 83.2844 82.7165 83.809 82.7165C84.3337 82.7165 84.717 82.6385 84.9249 82.4839C85.1328 82.3293 85.2351 82.1197 85.2351 81.8549C85.2351 81.4294 84.9119 81.1769 84.2655 81.0958L83.2227 80.9749C81.064 80.7224 79.9855 79.7919 79.9855 78.1834C79.9855 77.7473 80.0732 77.3478 80.2503 76.9851C80.4273 76.6224 80.6775 76.3133 81.0007 76.0546C81.3239 75.796 81.7137 75.5955 82.1718 75.4516C82.6282 75.3078 83.1447 75.2358 83.7181 75.2358C84.2184 75.2358 84.6602 75.268 85.0435 75.3307C85.4268 75.3935 85.7695 75.4853 86.0684 75.6062C86.3673 75.7271 86.6418 75.8756 86.8919 76.0546C87.142 76.2337 87.3889 76.4311 87.6326 76.6484L86.0781 78.1482C85.7728 77.8605 85.4284 77.634 85.0451 77.4672C84.6618 77.3004 84.2671 77.2177 83.8659 77.2177C83.403 77.2177 83.0733 77.2866 82.8783 77.4243C82.6834 77.5621 82.586 77.7457 82.586 77.9753C82.586 78.2171 82.6558 78.4038 82.7955 78.5354C82.9352 78.667 83.1999 78.7619 83.5914 78.8201L84.6699 78.9578C86.7798 79.2226 87.834 80.1301 87.834 81.6804C87.834 82.1166 87.7365 82.5191 87.5416 82.8864C87.3467 83.2537 87.0689 83.5736 86.71 83.8429C86.351 84.1123 85.9173 84.3235 85.4122 84.4719C84.9054 84.6204 84.3418 84.6953 83.7197 84.6953L83.7165 84.6984Z" fill="#3B5047"/>
<path d="M96.7757 84.4917C96.2884 84.4917 95.8823 84.3478 95.5591 84.0601C95.2359 83.7724 95.0312 83.3882 94.9467 82.9062H94.8363C94.6901 83.4923 94.3669 83.9377 93.8666 84.2422C93.3663 84.5468 92.7507 84.6983 92.0198 84.6983C91.0566 84.6983 90.3192 84.458 89.8076 83.9775C89.2959 83.4969 89.0393 82.8602 89.0393 82.0706C89.0393 81.1202 89.408 80.4131 90.1454 79.9494C90.8828 79.4857 91.8866 79.2531 93.1536 79.2531H94.6722V78.6837C94.6722 78.2476 94.5504 77.9002 94.3068 77.6415C94.0631 77.3829 93.6538 77.2543 93.0821 77.2543C92.5461 77.2543 92.1189 77.363 91.8022 77.5818C91.4854 77.8007 91.2223 78.0471 91.016 78.3226L89.4064 76.9712C89.7962 76.4279 90.2867 76.004 90.878 75.6979C91.4692 75.3918 92.2716 75.2388 93.2835 75.2388C94.6495 75.2388 95.6728 75.5204 96.3566 76.0836C97.0388 76.6468 97.3815 77.4686 97.3815 78.5475V82.5113H98.2781V84.4932H96.7789L96.7757 84.4917ZM93.0269 82.923C93.4784 82.923 93.865 82.8327 94.1882 82.649C94.5114 82.4669 94.6722 82.17 94.6722 81.7599V80.6993H93.355C92.2943 80.6993 91.7632 81.036 91.7632 81.7078V81.965C91.7632 82.2955 91.8736 82.5373 92.0929 82.6919C92.3122 82.8465 92.6241 82.923 93.0252 82.923H93.0269Z" fill="#3B5047"/>
<path d="M104.275 74.9954V84.6983H101.494V74.9954H98.0376V72.6692H107.731V74.9954H104.275Z" fill="#3B5047"/>
<path d="M112.304 84.6984C111.573 84.6984 110.92 84.5867 110.346 84.3617C109.773 84.1383 109.289 83.8215 108.893 83.4144C108.496 83.0073 108.197 82.5099 107.996 81.9238C107.794 81.3376 107.694 80.6826 107.694 79.9587C107.694 79.2348 107.791 78.5997 107.986 78.0197C108.181 77.4396 108.47 76.9423 108.855 76.529C109.24 76.1158 109.711 75.796 110.273 75.5725C110.834 75.3491 111.473 75.2358 112.193 75.2358C112.986 75.2358 113.665 75.3629 114.231 75.6154C114.798 75.8679 115.261 76.2077 115.622 76.6316C115.981 77.057 116.244 77.5483 116.408 78.1054C116.572 78.6624 116.655 79.2455 116.655 79.8546V80.6137H110.491V80.7499C110.491 81.3422 110.661 81.812 111.002 82.1594C111.344 82.5069 111.88 82.6813 112.612 82.6813C113.172 82.6813 113.631 82.5757 113.985 82.3645C114.339 82.1533 114.667 81.8993 114.972 81.6039L116.325 83.194C115.898 83.6669 115.341 84.0357 114.652 84.3005C113.963 84.5653 113.179 84.6984 112.302 84.6984H112.304ZM112.25 77.1152C111.701 77.1152 111.272 77.2851 110.96 77.6233C110.65 77.9615 110.494 78.413 110.494 78.9762V79.1139H113.86V78.9593C113.86 78.4084 113.728 77.963 113.466 77.6233C113.203 77.2851 112.799 77.1152 112.25 77.1152Z" fill="#3B5047"/>
<path d="M122.455 84.6983C121.736 84.6983 121.096 84.5866 120.535 84.3617C119.975 84.1382 119.506 83.8214 119.127 83.4143C118.749 83.0072 118.463 82.5098 118.268 81.9237C118.073 81.3375 117.976 80.6825 117.976 79.9586C117.976 79.2348 118.073 78.5828 118.268 78.0028C118.463 77.4227 118.749 76.9254 119.127 76.5121C119.506 76.0989 119.975 75.7821 120.535 75.5648C121.096 75.346 121.736 75.2373 122.455 75.2373C123.431 75.2373 124.245 75.4439 124.897 75.8571C125.548 76.2703 126.016 76.8504 126.295 77.5972L124.101 78.494C124.015 78.1497 123.838 77.8558 123.57 77.6156C123.302 77.3738 122.93 77.2544 122.454 77.2544C121.905 77.2544 121.491 77.4243 121.21 77.7625C120.929 78.1022 120.789 78.5583 120.789 79.1322V80.8218C120.789 81.3957 120.929 81.8502 121.21 82.1839C121.491 82.5175 121.905 82.6843 122.454 82.6843C122.941 82.6843 123.329 82.5604 123.615 82.314C123.901 82.0676 124.112 81.7431 124.247 81.3406L126.35 82.2022C126.034 83.0639 125.543 83.6959 124.879 84.0984C124.214 84.5009 123.405 84.7014 122.455 84.7014V84.6983Z" fill="#3B5047"/>
<path d="M128.033 72.6693H130.741V77.184H130.851C131.022 76.7126 131.32 76.3055 131.748 75.9597C132.175 75.6153 132.766 75.4424 133.521 75.4424C134.509 75.4424 135.256 75.753 135.761 76.3729C136.266 76.9927 136.52 77.8773 136.52 79.0266V84.6968H133.812V79.2332C133.812 78.6471 133.715 78.214 133.52 77.9324C133.325 77.6508 132.977 77.51 132.477 77.51C132.258 77.51 132.043 77.536 131.837 77.588C131.629 77.64 131.444 77.7227 131.28 77.8375C131.116 77.9523 130.984 78.0931 130.887 78.2599C130.789 78.4267 130.741 78.6195 130.741 78.8368V84.6968H128.033V72.6677V72.6693Z" fill="#3B5047"/>
<path d="M59.2081 61.797L61.201 60.8497C61.7127 60.6078 62.0944 60.3553 62.3445 60.0921C62.5947 59.8273 62.7197 59.4891 62.7197 59.0759C62.7197 58.6627 62.5979 58.3949 62.3543 58.2403C62.1106 58.0857 61.763 58.0077 61.3115 58.0077H59.8854L59.848 57.8699L62.0976 56.6808L61.4398 55.6462L60.233 56.3013C59.7083 56.589 59.3055 56.8583 59.0261 57.1108C58.7452 57.3634 58.6055 57.6909 58.6055 58.0934C58.6055 58.5525 58.724 58.8693 58.9628 59.0407C59.2016 59.2121 59.5394 59.2993 59.978 59.2993H61.4414L61.4788 59.4202L58.6071 60.6951L59.2113 61.7985L59.2081 61.797Z" fill="#3B5047"/>
<path d="M91.2532 58.4194H91.6187C91.9354 58.4194 92.1953 58.3276 92.3967 58.144C92.5981 57.9603 92.6988 57.668 92.6988 57.2655C92.6988 56.863 92.5981 56.5707 92.3967 56.3871C92.1953 56.2034 91.937 56.1116 91.6187 56.1116H91.2532C90.9365 56.1116 90.6766 56.2034 90.4752 56.3871C90.2738 56.5707 90.1731 56.8645 90.1731 57.2655C90.1731 57.6665 90.2738 57.9603 90.4752 58.144C90.6766 58.3276 90.9349 58.4194 91.2532 58.4194Z" fill="#3B5047"/>
<path d="M88.3621 58.4194H88.7276C89.0443 58.4194 89.3042 58.3276 89.5056 58.144C89.707 57.9603 89.8077 57.668 89.8077 57.2655C89.8077 56.863 89.707 56.5707 89.5056 56.3871C89.3042 56.2034 89.0459 56.1116 88.7276 56.1116H88.3621C88.0454 56.1116 87.7855 56.2034 87.5841 56.3871C87.3827 56.5707 87.282 56.8645 87.282 57.2655C87.282 57.6665 87.3827 57.9603 87.5841 58.144C87.7855 58.3276 88.0438 58.4194 88.3621 58.4194Z" fill="#3B5047"/>
<path d="M136.129 60.0233C135.58 60.0233 135.026 59.9881 134.464 59.9193C133.904 59.8504 133.379 59.7525 132.892 59.627L129.362 58.7653C129.07 58.6965 128.826 58.6383 128.631 58.5924C128.437 58.5465 128.269 58.5128 128.128 58.4883C127.988 58.4654 127.865 58.4485 127.762 58.4363C127.658 58.4256 127.558 58.4195 127.46 58.4195C126.692 58.4195 126.122 58.6092 125.75 58.9888C125.378 59.3683 125.193 59.9652 125.193 60.7809V62.1078H127.296V60.8146L130.058 61.4528L132.984 62.0389V62.1246L132.307 62.4353C131.782 62.6771 131.289 62.8653 130.826 63.0046C130.363 63.1423 129.887 63.2464 129.4 63.3153C128.912 63.3841 128.396 63.427 127.855 63.4438C127.313 63.4607 126.7 63.4698 126.016 63.4698H117.19C116.898 63.4698 116.599 63.453 116.293 63.4178C116.378 63.0964 116.422 62.7169 116.422 62.2807C116.422 60.96 116.063 59.9285 115.343 59.1877C114.624 58.447 113.545 58.0767 112.106 58.0767C111.484 58.0767 110.903 58.1486 110.36 58.2924C109.818 58.4363 109.303 58.6628 108.814 58.9735C108.327 59.2842 107.859 59.6867 107.415 60.1794C106.97 60.6738 106.535 61.2706 106.108 61.9716L105.302 63.2816C105.01 63.098 104.864 62.7582 104.864 62.2654V61.1803H102.851V62.2654C102.851 63.0704 102.364 63.4714 101.388 63.4714H92.2788C91.4245 63.4714 90.9989 63.0689 90.9989 62.2654V59.8014H88.9864V62.2654C88.9864 63.0704 88.4992 63.4714 87.523 63.4714H69.4336C68.4574 63.4714 67.9701 63.0689 67.9701 62.2654V53.3018H65.7757V62.2623C65.7757 62.5042 65.714 62.7016 65.5922 62.8562C65.4704 63.0107 65.2543 63.1347 64.9425 63.2265C64.6322 63.3183 64.2116 63.3811 63.6804 63.4163C63.1493 63.4515 62.4769 63.4683 61.6599 63.4683H59.1C58.3074 63.4683 57.643 63.4362 57.107 63.3734C56.571 63.3107 56.1374 63.2097 55.8076 63.0719C55.4779 62.9342 55.2408 62.7536 55.0946 62.5286C54.9484 62.3052 54.8753 62.0267 54.8753 61.693C54.8753 61.4053 54.9338 61.0809 55.0491 60.7197C55.1644 60.3585 55.3268 59.982 55.5331 59.5902L53.7773 59.1082C53.545 59.6484 53.3664 60.1932 53.2381 60.7457C53.1097 61.2967 53.0464 61.8032 53.0464 62.2623C53.0464 63.0092 53.1715 63.6351 53.4216 64.1402C53.6717 64.6452 54.0762 65.0569 54.6382 65.3722C55.1985 65.689 55.9343 65.9155 56.8423 66.0532C57.7502 66.1909 58.8694 66.2598 60.198 66.2598C61.1612 66.2598 61.9814 66.2169 62.6588 66.1312C63.3361 66.0455 63.8997 65.9017 64.3513 65.6997C64.8028 65.4992 65.1504 65.2375 65.394 64.9161C65.6377 64.5947 65.8082 64.1983 65.9057 63.727H66.0161C66.1997 64.532 66.5684 65.1196 67.1222 65.4931C67.6777 65.8665 68.4476 66.0532 69.4352 66.0532H71.3924H75.3069H77.2641H80.5565H82.5138H86.4282C87.2209 66.0532 87.8235 65.8665 88.2393 65.4931C88.6535 65.1196 88.9458 64.5304 89.118 63.727H89.2285C89.399 64.532 89.7368 65.1196 90.2436 65.4931C90.7488 65.8665 91.4894 66.0532 92.4656 66.0532H94.4228H96.3801H100.295C101.087 66.0532 101.69 65.8665 102.106 65.4931C102.52 65.1196 102.812 64.5304 102.984 63.727H103.095C103.265 64.532 103.603 65.1196 104.11 65.4931C104.615 65.8665 105.356 66.0532 106.332 66.0532H111.564C113.003 66.0532 114.112 65.8236 114.892 65.3645C115.233 65.6293 115.595 65.8099 115.98 65.9078C116.363 66.0057 116.769 66.0547 117.197 66.0547H126.023C126.608 66.0547 127.17 66.0287 127.706 65.9767C128.242 65.9246 128.797 65.816 129.37 65.6492C129.944 65.4823 130.55 65.2467 131.191 64.9421C131.831 64.6376 132.554 64.2274 133.358 63.7101L135.076 62.6067H136.503V60.0218H136.137L136.129 60.0233ZM114.445 62.798C114.348 62.9709 114.18 63.1056 113.942 63.2036C113.705 63.3015 113.393 63.3704 113.009 63.4102C112.626 63.45 112.14 63.4698 111.556 63.4698H106.965L106.91 63.3658L107.696 62.2455C107.929 61.9119 108.172 61.6425 108.427 61.4359C108.684 61.2293 108.97 61.0686 109.286 60.9538C109.603 60.8391 109.969 60.761 110.384 60.7212C110.799 60.6814 111.281 60.6615 111.83 60.6615H112.379C113.172 60.6615 113.739 60.7824 114.08 61.0227C114.421 61.2645 114.591 61.6318 114.591 62.1261C114.591 62.4016 114.543 62.6266 114.445 62.798Z" fill="#3B5047"/>
<path d="M174.469 69.0298H164.981V51.1025L174.469 57.2211V69.0298Z" fill="#3B5047"/>
<path d="M183.956 86.8975H174.469V68.9702L183.956 75.0873V86.8975Z" fill="#3B5047"/>
<path d="M155.494 69.0298H146.007V51.1025L155.494 57.2211V69.0298Z" fill="#3B5047"/>
<path d="M164.981 86.8975H155.494V68.9702L164.981 75.0873V86.8975Z" fill="#3B5047"/>
</g>
</g>
<defs>
<clipPath id="clip0_1_25">
<rect width="131" height="36" fill="white" transform="translate(53 51)"/>
</clipPath>
</defs>
</svg>
