<svg width="131" height="36" viewBox="0 0 131 36" fill="none"
    xmlns="http://www.w3.org/2000/svg">
    <g clip-path="url(#clip0_436_1653)">
        <path d="M7.68935 28.7693H2.82468V33.6988H0.0439453V21.6697H2.82468V26.443H7.68935V21.6697H10.4701V33.6988H7.68935V28.7693Z" fill="#fff"/>
        <path d="M14.4933 24.5647C13.9443 24.5647 13.5448 24.4469 13.2946 24.2112C13.0445 23.9755 12.9194 23.674 12.9194 23.3067V22.9272C12.9194 22.5599 13.0445 22.2584 13.2946 22.0227C13.5448 21.787 13.9443 21.6692 14.4933 21.6692C15.0423 21.6692 15.4419 21.787 15.692 22.0227C15.9422 22.2584 16.0673 22.5599 16.0673 22.9272V23.3067C16.0673 23.674 15.9422 23.9755 15.692 24.2112C15.4419 24.4469 15.0423 24.5647 14.4933 24.5647ZM13.1403 25.4157H15.848V33.6983H13.1403V25.4157Z" fill="#fff"/>
        <path d="M21.6271 33.6984C20.6996 33.6984 19.92 33.5576 19.2865 33.276C18.6531 32.9944 18.0846 32.595 17.5859 32.0777L19.1777 30.5611C19.5188 30.9176 19.8973 31.1992 20.3115 31.4058C20.7256 31.6125 21.195 31.7165 21.7197 31.7165C22.2443 31.7165 22.6276 31.6385 22.8356 31.4839C23.0435 31.3293 23.1458 31.1197 23.1458 30.8549C23.1458 30.4294 22.8226 30.1769 22.1761 30.0958L21.1333 29.9749C18.9747 29.7224 17.8962 28.7919 17.8962 27.1834C17.8962 26.7473 17.9839 26.3478 18.1609 25.9851C18.338 25.6224 18.5881 25.3133 18.9113 25.0546C19.2346 24.796 19.6244 24.5955 20.0824 24.4516C20.5388 24.3078 21.0554 24.2358 21.6287 24.2358C22.129 24.2358 22.5708 24.268 22.9541 24.3307C23.3375 24.3935 23.6802 24.4853 23.979 24.6062C24.2779 24.7271 24.5524 24.8756 24.8025 25.0546C25.0527 25.2337 25.2996 25.4311 25.5432 25.6484L23.9888 27.1482C23.6834 26.8605 23.3391 26.634 22.9557 26.4672C22.5724 26.3004 22.1777 26.2177 21.7765 26.2177C21.3136 26.2177 20.9839 26.2866 20.789 26.4243C20.5941 26.5621 20.4966 26.7457 20.4966 26.9753C20.4966 27.2171 20.5665 27.4038 20.7061 27.5354C20.8458 27.667 21.1106 27.7619 21.502 27.8201L22.5805 27.9578C24.6905 28.2226 25.7446 29.1301 25.7446 30.6804C25.7446 31.1166 25.6472 31.5191 25.4522 31.8864C25.2573 32.2537 24.9796 32.5736 24.6206 32.8429C24.2617 33.1123 23.828 33.3235 23.3228 33.4719C22.8161 33.6204 22.2524 33.6953 21.6304 33.6953L21.6271 33.6984Z" fill="#fff"/>
        <path d="M30.7165 33.6984C29.789 33.6984 29.0094 33.5576 28.3759 33.276C27.7424 32.9944 27.1739 32.595 26.6753 32.0777L28.2671 30.5611C28.6082 30.9176 28.9866 31.1992 29.4008 31.4058C29.815 31.6125 30.2844 31.7165 30.809 31.7165C31.3337 31.7165 31.717 31.6385 31.9249 31.4839C32.1328 31.3293 32.2351 31.1197 32.2351 30.8549C32.2351 30.4294 31.9119 30.1769 31.2655 30.0958L30.2227 29.9749C28.064 29.7224 26.9855 28.7919 26.9855 27.1834C26.9855 26.7473 27.0732 26.3478 27.2503 25.9851C27.4273 25.6224 27.6775 25.3133 28.0007 25.0546C28.3239 24.796 28.7137 24.5955 29.1718 24.4516C29.6282 24.3078 30.1447 24.2358 30.7181 24.2358C31.2184 24.2358 31.6602 24.268 32.0435 24.3307C32.4268 24.3935 32.7695 24.4853 33.0684 24.6062C33.3673 24.7271 33.6418 24.8756 33.8919 25.0546C34.142 25.2337 34.3889 25.4311 34.6326 25.6484L33.0781 27.1482C32.7728 26.8605 32.4284 26.634 32.0451 26.4672C31.6618 26.3004 31.2671 26.2177 30.8659 26.2177C30.403 26.2177 30.0733 26.2866 29.8783 26.4243C29.6834 26.5621 29.586 26.7457 29.586 26.9753C29.586 27.2171 29.6558 27.4038 29.7955 27.5354C29.9352 27.667 30.1999 27.7619 30.5914 27.8201L31.6699 27.9578C33.7798 28.2226 34.834 29.1301 34.834 30.6804C34.834 31.1166 34.7365 31.5191 34.5416 31.8864C34.3467 32.2537 34.0689 32.5736 33.71 32.8429C33.351 33.1123 32.9173 33.3235 32.4122 33.4719C31.9054 33.6204 31.3418 33.6953 30.7197 33.6953L30.7165 33.6984Z" fill="#fff"/>
        <path d="M43.7757 33.4917C43.2884 33.4917 42.8823 33.3478 42.5591 33.0601C42.2359 32.7724 42.0312 32.3882 41.9467 31.9062H41.8363C41.6901 32.4923 41.3669 32.9377 40.8666 33.2422C40.3663 33.5468 39.7507 33.6983 39.0198 33.6983C38.0566 33.6983 37.3192 33.458 36.8076 32.9775C36.2959 32.4969 36.0393 31.8602 36.0393 31.0706C36.0393 30.1202 36.408 29.4131 37.1454 28.9494C37.8828 28.4857 38.8866 28.2531 40.1536 28.2531H41.6722V27.6837C41.6722 27.2476 41.5504 26.9002 41.3068 26.6415C41.0631 26.3829 40.6538 26.2543 40.0821 26.2543C39.5461 26.2543 39.1189 26.363 38.8022 26.5818C38.4854 26.8007 38.2223 27.0471 38.016 27.3226L36.4064 25.9712C36.7962 25.4279 37.2867 25.004 37.878 24.6979C38.4692 24.3918 39.2716 24.2388 40.2835 24.2388C41.6495 24.2388 42.6728 24.5204 43.3566 25.0836C44.0388 25.6468 44.3815 26.4686 44.3815 27.5475V31.5113H45.2781V33.4932H43.7789L43.7757 33.4917ZM40.0269 31.923C40.4784 31.923 40.865 31.8327 41.1882 31.649C41.5114 31.4669 41.6722 31.17 41.6722 30.7599V29.6993H40.355C39.2943 29.6993 38.7632 30.036 38.7632 30.7078V30.965C38.7632 31.2955 38.8736 31.5373 39.0929 31.6919C39.3122 31.8465 39.6241 31.923 40.0252 31.923H40.0269Z" fill="#fff"/>
        <path d="M51.2748 23.9954V33.6983H48.494V23.9954H45.0376V21.6692H54.7312V23.9954H51.2748Z" fill="#fff"/>
        <path d="M59.3035 33.6984C58.5726 33.6984 57.9196 33.5867 57.3463 33.3617C56.7729 33.1383 56.2889 32.8215 55.8925 32.4144C55.4962 32.0073 55.1974 31.5099 54.996 30.9238C54.7945 30.3376 54.6938 29.6826 54.6938 28.9587C54.6938 28.2348 54.7913 27.5997 54.9862 27.0197C55.1811 26.4396 55.4702 25.9423 55.8552 25.529C56.2401 25.1158 56.7112 24.796 57.2732 24.5725C57.8335 24.3491 58.4735 24.2358 59.1931 24.2358C59.9857 24.2358 60.6646 24.3629 61.2315 24.6154C61.7984 24.8679 62.2613 25.2077 62.6219 25.6316C62.9808 26.057 63.244 26.5483 63.408 27.1054C63.5721 27.6624 63.6549 28.2455 63.6549 28.8546V29.6137H57.4908V29.7499C57.4908 30.3422 57.6614 30.812 58.0025 31.1594C58.3436 31.5069 58.8796 31.6813 59.6121 31.6813C60.1725 31.6813 60.6305 31.5757 60.9846 31.3645C61.3387 31.1533 61.6668 30.8993 61.9722 30.6039L63.3252 32.194C62.898 32.6669 62.3409 33.0357 61.6522 33.3005C60.9635 33.5653 60.179 33.6984 59.3019 33.6984H59.3035ZM59.2499 26.1152C58.7009 26.1152 58.2721 26.2851 57.9602 26.6233C57.65 26.9615 57.4941 27.413 57.4941 27.9762V28.1139H60.8595V27.9593C60.8595 27.4084 60.728 26.963 60.4665 26.6233C60.2033 26.2851 59.7989 26.1152 59.2499 26.1152Z" fill="#fff"/>
        <path d="M69.4553 33.6983C68.7358 33.6983 68.0958 33.5866 67.5354 33.3617C66.9751 33.1382 66.5056 32.8214 66.1272 32.4143C65.7487 32.0072 65.4629 31.5098 65.268 30.9237C65.073 30.3375 64.9756 29.6825 64.9756 28.9586C64.9756 28.2348 65.073 27.5828 65.268 27.0028C65.4629 26.4227 65.7487 25.9254 66.1272 25.5121C66.5056 25.0989 66.9751 24.7821 67.5354 24.5648C68.0958 24.346 68.7358 24.2373 69.4553 24.2373C70.4315 24.2373 71.2452 24.4439 71.8966 24.8571C72.5479 25.2703 73.0157 25.8504 73.2951 26.5972L71.1007 27.494C71.0146 27.1497 70.8375 26.8558 70.5695 26.6156C70.3015 26.3738 69.9296 26.2544 69.4537 26.2544C68.9047 26.2544 68.4905 26.4243 68.2095 26.7625C67.9285 27.1022 67.7888 27.5583 67.7888 28.1322V29.8218C67.7888 30.3957 67.9285 30.8502 68.2095 31.1839C68.4905 31.5175 68.9047 31.6843 69.4537 31.6843C69.941 31.6843 70.3292 31.5604 70.615 31.314C70.9009 31.0676 71.1121 30.7431 71.2469 30.3406L73.3503 31.2022C73.0336 32.0639 72.543 32.6959 71.8787 33.0984C71.2144 33.5009 70.4055 33.7014 69.4553 33.7014V33.6983Z" fill="#fff"/>
        <path d="M75.033 21.6693H77.7406V26.184H77.851C78.0216 25.7126 78.3205 25.3055 78.7476 24.9597C79.1748 24.6153 79.7661 24.4424 80.5213 24.4424C81.5089 24.4424 82.2561 24.753 82.7612 25.3729C83.2663 25.9927 83.5197 26.8773 83.5197 28.0266V33.6968H80.8121V28.2332C80.8121 27.6471 80.7146 27.214 80.5197 26.9324C80.3248 26.6508 79.9772 26.51 79.4769 26.51C79.2577 26.51 79.0433 26.536 78.837 26.588C78.6291 26.64 78.4439 26.7227 78.2799 26.8375C78.1158 26.9523 77.9842 27.0931 77.8868 27.2599C77.7893 27.4267 77.7406 27.6195 77.7406 27.8368V33.6968H75.033V21.6677V21.6693Z" fill="#fff"/>
        <path d="M6.20807 10.797L8.20104 9.84966C8.71268 9.60785 9.09438 9.35533 9.34452 9.0921C9.59466 8.82734 9.71973 8.48912 9.71973 8.0759C9.71973 7.66269 9.59791 7.39487 9.35427 7.2403C9.11063 7.08573 8.76303 7.00767 8.31149 7.00767H6.88539L6.84803 6.86994L9.09763 5.6808L8.43981 4.64624L7.23298 5.30126C6.70834 5.58898 6.30553 5.85833 6.02615 6.11085C5.74516 6.36337 5.60547 6.69088 5.60547 7.09338C5.60547 7.5525 5.72404 7.8693 5.96281 8.04071C6.20157 8.21211 6.53942 8.29935 6.97797 8.29935H8.44143L8.47879 8.42025L5.60709 9.69509L6.21132 10.7985L6.20807 10.797Z" fill="#fff"/>
        <path d="M38.2532 7.41944H38.6187C38.9354 7.41944 39.1953 7.32762 39.3967 7.14397C39.5981 6.96032 39.6988 6.66801 39.6988 6.26551C39.6988 5.86301 39.5981 5.5707 39.3967 5.38705C39.1953 5.2034 38.937 5.11157 38.6187 5.11157H38.2532C37.9365 5.11157 37.6766 5.2034 37.4752 5.38705C37.2738 5.5707 37.1731 5.86454 37.1731 6.26551C37.1731 6.66648 37.2738 6.96032 37.4752 7.14397C37.6766 7.32762 37.9349 7.41944 38.2532 7.41944Z" fill="#fff"/>
        <path d="M35.3621 7.41944H35.7276C36.0443 7.41944 36.3042 7.32762 36.5056 7.14397C36.707 6.96032 36.8077 6.66801 36.8077 6.26551C36.8077 5.86301 36.707 5.5707 36.5056 5.38705C36.3042 5.2034 36.0459 5.11157 35.7276 5.11157H35.3621C35.0454 5.11157 34.7855 5.2034 34.5841 5.38705C34.3827 5.5707 34.282 5.86454 34.282 6.26551C34.282 6.66648 34.3827 6.96032 34.5841 7.14397C34.7855 7.32762 35.0438 7.41944 35.3621 7.41944Z" fill="#fff"/>
        <path d="M83.129 9.02335C82.58 9.02335 82.0262 8.98815 81.4642 8.91928C80.9038 8.85041 80.3792 8.75246 79.8919 8.62697L76.3624 7.76535C76.07 7.69648 75.8263 7.63832 75.6314 7.59241C75.4365 7.5465 75.2692 7.51283 75.1279 7.48834C74.9882 7.46538 74.8648 7.44855 74.7625 7.43631C74.6585 7.42559 74.5578 7.41947 74.4603 7.41947C73.6921 7.41947 73.1219 7.60924 72.75 7.98879C72.378 8.36833 72.1929 8.96519 72.1929 9.78091V11.1078H74.2963V9.81457L77.0575 10.4528L79.9845 11.0389V11.1246L79.3071 11.4353C78.7825 11.6771 78.2887 11.8653 77.8258 12.0046C77.3629 12.1423 76.887 12.2464 76.3997 12.3153C75.9124 12.3841 75.3959 12.427 74.855 12.4438C74.3125 12.4607 73.7002 12.4698 73.0164 12.4698H64.1901C63.8978 12.4698 63.5989 12.453 63.2935 12.4178C63.378 12.0964 63.4219 11.7169 63.4219 11.2807C63.4219 9.95996 63.0629 8.92846 62.3433 8.18774C61.6238 7.44702 60.5453 7.07666 59.1062 7.07666C58.4841 7.07666 57.9026 7.14859 57.3601 7.29245C56.8176 7.43631 56.3027 7.66281 55.8138 7.97348C55.3265 8.28416 54.8587 8.68666 54.4153 9.17945C53.9703 9.67378 53.535 10.2706 53.1078 10.9716L52.3022 12.2816C52.0098 12.098 51.8636 11.7582 51.8636 11.2654V10.1803H49.8511V11.2654C49.8511 12.0704 49.3639 12.4714 48.3877 12.4714H39.2788C38.4245 12.4714 37.9989 12.0689 37.9989 11.2654V8.80144H35.9864V11.2654C35.9864 12.0704 35.4992 12.4714 34.523 12.4714H16.4336C15.4574 12.4714 14.9701 12.0689 14.9701 11.2654V2.30176H12.7757V11.2623C12.7757 11.5042 12.714 11.7016 12.5922 11.8562C12.4704 12.0107 12.2543 12.1347 11.9425 12.2265C11.6322 12.3183 11.2116 12.3811 10.6804 12.4163C10.1493 12.4515 9.47685 12.4683 8.65985 12.4683H6.10001C5.30737 12.4683 4.64305 12.4362 4.10704 12.3734C3.57104 12.3107 3.13736 12.2097 2.80763 12.0719C2.47791 11.9342 2.24077 11.7536 2.09458 11.5286C1.9484 11.3052 1.87531 11.0267 1.87531 10.693C1.87531 10.4053 1.93378 10.0809 2.0491 9.71969C2.16442 9.35851 2.32685 8.98203 2.53313 8.59024L0.777305 8.10816C0.545035 8.6484 0.366366 9.19322 0.23805 9.74571C0.109733 10.2967 0.0463867 10.8032 0.0463867 11.2623C0.0463867 12.0092 0.171455 12.6351 0.421591 13.1402C0.671728 13.6452 1.07617 14.0569 1.63816 14.3722C2.19853 14.689 2.93432 14.9155 3.84229 15.0532C4.75025 15.1909 5.86937 15.2598 7.19801 15.2598C8.1612 15.2598 8.98145 15.2169 9.65877 15.1312C10.3361 15.0455 10.8997 14.9017 11.3513 14.6997C11.8028 14.4992 12.1504 14.2375 12.394 13.9161C12.6377 13.5947 12.8082 13.1983 12.9057 12.727H13.0161C13.1997 13.532 13.5684 14.1196 14.1222 14.4931C14.6777 14.8665 15.4476 15.0532 16.4352 15.0532H18.3924H22.3069H24.2641H27.5565H29.5138H33.4282C34.2209 15.0532 34.8235 14.8665 35.2393 14.4931C35.6535 14.1196 35.9458 13.5304 36.118 12.727H36.2285C36.399 13.532 36.7368 14.1196 37.2436 14.4931C37.7488 14.8665 38.4894 15.0532 39.4656 15.0532H41.4228H43.3801H47.2946C48.0872 15.0532 48.6898 14.8665 49.1056 14.4931C49.5198 14.1196 49.8122 13.5304 49.9843 12.727H50.0948C50.2653 13.532 50.6032 14.1196 51.1099 14.4931C51.6151 14.8665 52.3558 15.0532 53.3319 15.0532H58.5637C60.0028 15.0532 61.1122 14.8236 61.8918 14.3645C62.2329 14.6293 62.5951 14.8099 62.9801 14.9078C63.3634 15.0057 63.7694 15.0547 64.1966 15.0547H73.0229C73.6076 15.0547 74.1696 15.0287 74.7056 14.9767C75.2416 14.9246 75.7971 14.816 76.3705 14.6492C76.9438 14.4823 77.5497 14.2467 78.1913 13.9421C78.8312 13.6376 79.554 13.2274 80.358 12.7101L82.0765 11.6067H83.5026V9.02182H83.1372L83.129 9.02335ZM61.4451 11.798C61.3477 11.9709 61.1804 12.1056 60.9416 12.2036C60.7045 12.3015 60.3926 12.3704 60.0093 12.4102C59.626 12.45 59.1403 12.4698 58.5556 12.4698H53.9654L53.9102 12.3658L54.6963 11.2455C54.9286 10.9119 55.1722 10.6425 55.4272 10.4359C55.6839 10.2293 55.9697 10.0686 56.2865 9.95384C56.6032 9.83906 56.9687 9.76101 57.3845 9.72122C57.7987 9.68143 58.2811 9.66153 58.8301 9.66153H59.3791C60.1717 9.66153 60.7386 9.78243 61.0797 10.0227C61.4208 10.2645 61.5913 10.6318 61.5913 11.1261C61.5913 11.4016 61.5426 11.6266 61.4451 11.798Z" fill="#fff"/>
        <path d="M121.469 18.0298H111.981V0.102539L121.469 6.22115V18.0298Z" fill="#fff"/>
        <path d="M130.956 35.8975H121.469V17.9702L130.956 24.0873V35.8975Z" fill="#fff"/>
        <path d="M102.494 18.0298H93.0068V0.102539L102.494 6.22115V18.0298Z" fill="#fff"/>
        <path d="M111.981 35.8975H102.494V17.9702L111.981 24.0873V35.8975Z" fill="#fff"/>
    </g>
    <defs>
        <clipPath id="clip0_436_1653">
            <rect width="131" height="36" fill="white"/>
        </clipPath>
    </defs>
</svg>